<svg xmlns="http://www.w3.org/2000/svg" viewBox="0 0 434.37 132.41"><defs><style>.cls-1{fill:#fff;}</style></defs><title>logo white</title><g id="Camada_2" data-name="Camada 2"><g id="Camada_1-2" data-name="Camada 1"><path class="cls-1" d="M0,66.2a66.21,66.21,0,1,1,66.2,66.21A66.2,66.2,0,0,1,0,66.2"/><path class="cls-1" d="M169.82,58a19.12,19.12,0,0,1-13.57-5.36q-5.69-5.37-5.68-14a18.23,18.23,0,0,1,5.93-14.1A20.65,20.65,0,0,1,171,19.1,19.61,19.61,0,0,1,185.38,25l-4.68,5.76q-4.9-4.26-9.88-4.27a12.45,12.45,0,0,0-8.63,3.31,10.91,10.91,0,0,0-3.66,8.52,12.36,12.36,0,0,0,12.54,12.47q5.28,0,10-4.83l4.69,5.12q-6.9,7-15.92,7"/><path class="cls-1" d="M199.52,38.75A11.83,11.83,0,0,0,203,47.6,11.3,11.3,0,0,0,211.18,51a10.56,10.56,0,0,0,8-3.45,12.35,12.35,0,0,0,3.26-8.84,13,13,0,0,0-3.26-9,10.42,10.42,0,0,0-8-3.62,10.87,10.87,0,0,0-8.18,3.62,12.73,12.73,0,0,0-3.41,9.06M196.9,52.64q-5.34-5.4-5.33-14.21T197,24.36A18,18,0,0,1,210,19.1q7.46,0,12.29,7.11V19.67h8v37.8h-8V51.29a15.11,15.11,0,0,1-5.79,5A15.79,15.79,0,0,1,209.4,58a17,17,0,0,1-12.5-5.4"/><path class="cls-1" d="M249.69,37V57.47h-8V19.67h8v6.9a12.61,12.61,0,0,1,5.15-5.48,14.67,14.67,0,0,1,7.43-2q9,0,12.15,7.39,5.61-7.38,14-7.39A14.08,14.08,0,0,1,298.76,23q3.93,3.91,3.94,11.3V57.47h-8V36.73q0-10.45-8.67-10.45A10.5,10.5,0,0,0,279,28.87c-2,1.73-3.07,4.26-3.16,7.57v21h-8V36.73q0-5.4-1.92-7.93t-6-2.52A10.36,10.36,0,0,0,252.75,29c-2,1.82-3.06,4.49-3.06,8"/><path class="cls-1" d="M321.6,38.64a12.34,12.34,0,0,0,3.27,8.85,10.55,10.55,0,0,0,8,3.45A11.32,11.32,0,0,0,341,47.53a11.86,11.86,0,0,0,3.48-8.85,12.59,12.59,0,0,0-3.41-9,10.87,10.87,0,0,0-8.17-3.59,10.41,10.41,0,0,0-8,3.59,12.81,12.81,0,0,0-3.27,9M334,19.1a18,18,0,0,1,13,5.26q5.4,5.27,5.4,14t-5.37,14.21A17,17,0,0,1,334.57,58q-7.14,0-12.83-6.25V71.26h-8V19.67h8v6.61q4.69-7.17,12.29-7.18"/><path class="cls-1" d="M388,40.14V19.67h7.95v37.8H388V50.58a14.85,14.85,0,0,1-22.92,3.56q-3.94-3.91-3.94-11.3V19.67h8V40.42q0,10.44,8.66,10.45a10.44,10.44,0,0,0,7.18-2.74c2-1.82,3.06-4.49,3.06-8"/><path class="cls-1" d="M434.37,46.18a10.64,10.64,0,0,1-3.91,8.63,15.19,15.19,0,0,1-10,3.23,26.66,26.66,0,0,1-8.56-1.49A25.74,25.74,0,0,1,404,52.36l3.84-6.18q6.61,5,12.79,5a6.7,6.7,0,0,0,4.27-1.24,3.89,3.89,0,0,0,1.56-3.17q0-2.84-7.53-5.11c-.38-.14-.67-.24-.86-.29q-11.79-3.2-11.79-10.65a10.1,10.1,0,0,1,4.08-8.42q4.1-3.16,10.63-3.17a22.09,22.09,0,0,1,12.36,3.84l-3,5.9a17.79,17.79,0,0,0-10-3.06,9.19,9.19,0,0,0-4.62,1A3.35,3.35,0,0,0,414,29.9a2.81,2.81,0,0,0,1.85,2.7,17.63,17.63,0,0,0,3.59,1.21q2.31.57,4.08,1.14c1.19.38,2.34.81,3.45,1.28a22.43,22.43,0,0,1,3.59,2c2.56,1.7,3.84,4.36,3.84,8"/><path class="cls-1" d="M158.23,95.49a12.34,12.34,0,0,0,3.27,8.85,10.58,10.58,0,0,0,8,3.44,11.27,11.27,0,0,0,8.17-3.41,11.83,11.83,0,0,0,3.48-8.84,12.55,12.55,0,0,0-3.41-9,10.89,10.89,0,0,0-8.17-3.59,10.46,10.46,0,0,0-8,3.59,12.84,12.84,0,0,0-3.27,9M170.67,76a17.94,17.94,0,0,1,13,5.26q5.4,5.25,5.4,14t-5.36,14.21a17,17,0,0,1-12.51,5.47q-7.14,0-12.82-6.25v19.47h-8V76.52h8v6.61q4.68-7.18,12.29-7.18"/><path class="cls-1" d="M203.71,95.6a11.83,11.83,0,0,0,3.48,8.84,11.28,11.28,0,0,0,8.17,3.41,10.54,10.54,0,0,0,8-3.44,12.34,12.34,0,0,0,3.27-8.85,13,13,0,0,0-3.27-9,10.38,10.38,0,0,0-8-3.63,10.82,10.82,0,0,0-8.17,3.63,12.7,12.7,0,0,0-3.41,9.06m-2.63,13.89q-5.33-5.4-5.33-14.21t5.47-14.07A18,18,0,0,1,214.15,76q7.47,0,12.3,7.1V76.52h8v37.8h-8v-6.18a15.19,15.19,0,0,1-5.79,5,15.82,15.82,0,0,1-7.07,1.74,17,17,0,0,1-12.51-5.4"/><path class="cls-1" d="M265.74,84q-5.89,0-8.88,3.83t-3,10.31v16.2h-8V76.52h8v7.6a16.47,16.47,0,0,1,5.23-5.83,12.62,12.62,0,0,1,7-2.34l.07,8Z"/><path class="cls-1" d="M281.73,82.91V102.1a6.23,6.23,0,0,0,1.42,4.3,5.07,5.07,0,0,0,4,1.6,6.77,6.77,0,0,0,4.9-2.49l3.27,5.61a13.59,13.59,0,0,1-9.27,3.77,11.91,11.91,0,0,1-8.67-3.52q-3.58-3.51-3.59-9.49V64.65h8V76.52h9.95v6.39Z"/><path class="cls-1" d="M317.33,122.14q10.51,0,10.51-13.36v-2.35a16.19,16.19,0,0,1-12.15,4.91q-14.7,0-14.71-16.13V76.59h8V91.65c0,4.41.68,7.52,2,9.35s3.67,2.73,7,2.73,5.7-.84,7.21-2.52,2.42-4.23,2.7-7.64v-17h8V109q0,9.87-5.15,15.14a17.86,17.86,0,0,1-13.32,5.25,20.12,20.12,0,0,1-11-3,17,17,0,0,1-6.86-8.53l7.18-3.05q2.77,7.32,10.66,7.32"/></g></g></svg>
